<?xml version="1.0" standalone="no"?><!DOCTYPE svg PUBLIC "-//W3C//DTD SVG 1.1//EN" "http://www.w3.org/Graphics/SVG/1.1/DTD/svg11.dtd"><svg t="1482461485136" class="icon" style="" viewBox="0 0 1024 1024" version="1.1" xmlns="http://www.w3.org/2000/svg" p-id="960" xmlns:xlink="http://www.w3.org/1999/xlink" width="200" height="200"><defs><style type="text/css"></style></defs><path d="M516.668787 590.031275C527.610335 590.031275 538.630318 593.68579 547.258063 600.388989L953.958182 917.100532C975.292242 933.711961 979.076684 964.413789 962.389842 985.676418 945.742216 1006.939046 914.937246 1010.710818 893.603186 994.099389L516.864871 700.74156 140.146165 994.099389C118.792497 1010.710818 88.007135 1006.939046 71.339901 985.676418 54.672668 964.413789 58.437501 933.711961 79.79117 917.100532L486.491289 600.388989C495.099425 593.68579 505.727237 590.031275 516.668787 590.031275" p-id="961"></path><path d="M516.668787 87.822878C527.610335 87.822878 538.630318 91.477391 547.258063 98.180592L953.958182 414.872591C975.292242 431.48402 979.076684 462.205392 962.40945 483.46802 945.722608 504.730649 914.937246 508.482877 893.603186 491.890992L516.864871 198.533163 140.146165 491.890992C118.792497 508.482877 88.007135 504.730649 71.339901 483.46802 54.653059 462.205392 58.45711 431.48402 79.79117 414.872591L486.491289 98.180592C495.099425 91.477391 505.727237 87.822878 516.668787 87.822878" p-id="962"></path></svg>