<?xml version="1.0" standalone="no"?><!DOCTYPE svg PUBLIC "-//W3C//DTD SVG 1.1//EN" "http://www.w3.org/Graphics/SVG/1.1/DTD/svg11.dtd"><svg t="1480940994607" class="icon" style="" viewBox="0 0 1024 1024" version="1.1" xmlns="http://www.w3.org/2000/svg" p-id="4802" xmlns:xlink="http://www.w3.org/1999/xlink" width="200" height="200"><defs><style type="text/css"></style></defs><path d="M878.887822 929.883022 150.584889 929.883022c-42.131911 0-52.462933-18.625422-52.462933-53.156978L98.121956 144.008533c0-30.583467 12.128711-49.891556 53.191111-49.891556L749.909333 94.116978c38.058667 0 52.144356 16.418133 52.144356 52.622222l0 626.870044c0 15.712711-12.731733 28.444444-28.444444 28.444444s-28.444444-12.731733-28.444444-28.444444L745.1648 166.183822c0 0 0.637156-5.336178-5.051733-11.150222-4.232533-4.334933-9.659733-4.027733-9.659733-4.027733L173.385956 151.005867c0 0-8.783644-0.887467-13.7216 4.027733-5.472711 5.438578-4.664889 12.970667-4.664889 12.970667l0 687.672889c0 0-1.444978 8.157867 4.858311 13.0048 6.303289 4.824178 11.298133 4.312178 11.298133 4.312178l679.048533 0c0 0 8.465067 0.887467 14.165333-4.175644s4.608-12.265244 4.608-12.265244L868.977778 298.313956c0-15.712711 12.731733-28.444444 28.444444-28.444444s28.444444 12.731733 28.444444 28.444444l0 582.633244C925.878044 916.48 910.939022 929.883022 878.887822 929.883022z" p-id="4803"></path><path d="M564.212622 285.991822 342.084267 285.991822c-15.712711 0-28.444444-12.731733-28.444444-28.444444s12.731733-28.444444 28.444444-28.444444l222.116978 0c15.712711 0 28.444444 12.731733 28.444444 28.444444S579.925333 285.991822 564.212622 285.991822z" p-id="4804"></path><path d="M648.521956 431.889067 243.188622 431.889067c-15.712711 0-28.444444-12.731733-28.444444-28.444444s12.731733-28.444444 28.444444-28.444444l405.333333 0c15.712711 0 28.444444 12.731733 28.444444 28.444444S664.234667 431.889067 648.521956 431.889067z" p-id="4805"></path><path d="M648.521956 594.056533 243.188622 594.056533c-15.712711 0-28.444444-12.731733-28.444444-28.444444s12.731733-28.444444 28.444444-28.444444l405.333333 0c15.712711 0 28.444444 12.731733 28.444444 28.444444S664.234667 594.056533 648.521956 594.056533z" p-id="4806"></path><path d="M648.521956 748.077511 243.188622 748.077511c-15.712711 0-28.444444-12.731733-28.444444-28.444444s12.731733-28.444444 28.444444-28.444444l405.333333 0c15.712711 0 28.444444 12.731733 28.444444 28.444444S664.234667 748.077511 648.521956 748.077511z" p-id="4807"></path></svg>