<?xml version="1.0" standalone="no"?><!DOCTYPE svg PUBLIC "-//W3C//DTD SVG 1.1//EN" "http://www.w3.org/Graphics/SVG/1.1/DTD/svg11.dtd"><svg t="1482394231321" class="icon" style="" viewBox="0 0 1024 1024" version="1.1" xmlns="http://www.w3.org/2000/svg" p-id="2977" xmlns:xlink="http://www.w3.org/1999/xlink" width="200" height="200"><defs><style type="text/css"></style></defs><path d="M464.946334 50.000787c0-25.732058 20.87647-46.608527 47.053666-46.608527 25.974581 0 47.053666 21.200858 47.053666 46.608527L559.053666 239.105726c0 25.732058-20.87647 46.608527-47.053666 46.608527-25.974581 0-47.053666-21.200858-47.053666-46.608527L464.946334 50.000787 464.946334 50.000787zM702.236716 88.35635c12.866029-22.292726 41.389666-29.939893 64.046688-16.83134 22.49534 12.986779 30.141484 41.915645 17.438161 63.883983l-94.552469 163.777087c-12.866029 22.292726-41.389666 29.939893-64.046688 16.83134-22.49534-12.986779-30.141484-41.915645-17.438161-63.883983L702.236716 88.35635 702.236716 88.35635zM888.589984 240.238526c22.292726-12.866029 50.816363-5.218862 63.883983 17.438161 12.987802 22.49534 5.13802 51.382251-16.830317 64.046688l-163.777087 94.552469c-22.292726 12.866029-50.816363 5.218862-63.883983-17.438161-12.986779-22.49534-5.13802-51.382251 16.83134-64.046688L888.589984 240.238526 888.589984 240.238526zM973.999213 464.946334c25.732058 0 46.608527 20.87647 46.608527 47.053666 0 25.974581-21.200858 47.053666-46.608527 47.053666L784.894274 559.053666c-25.732058 0-46.608527-20.87647-46.608527-47.053666 0-25.974581 21.200858-47.053666 46.608527-47.053666L973.999213 464.946334 973.999213 464.946334zM935.64365 702.236716c22.292726 12.866029 29.939893 41.389666 16.830317 64.046688-12.986779 22.49534-41.915645 30.141484-63.883983 17.438161l-163.777087-94.552469c-22.292726-12.866029-29.939893-41.389666-16.83134-64.046688 12.987802-22.49534 41.915645-30.141484 63.883983-17.438161L935.64365 702.236716 935.64365 702.236716zM783.761474 888.589984c12.866029 22.292726 5.218862 50.816363-17.438161 63.883983-22.49534 12.987802-51.382251 5.13802-64.046688-16.830317l-94.552469-163.777087c-12.866029-22.292726-5.218862-50.816363 17.438161-63.883983 22.49534-12.986779 51.382251-5.13802 64.046688 16.83134L783.761474 888.589984 783.761474 888.589984zM559.053666 973.999213c0 25.732058-20.87647 46.608527-47.053666 46.608527-25.974581 0-47.053666-21.200858-47.053666-46.608527L464.946334 784.894274c0-25.732058 20.87647-46.608527 47.053666-46.608527 25.974581 0 47.053666 21.200858 47.053666 46.608527L559.053666 973.999213 559.053666 973.999213zM321.763284 935.64365c-12.866029 22.292726-41.389666 29.939893-64.046688 16.830317-22.49534-12.986779-30.141484-41.915645-17.438161-63.883983l94.552469-163.777087c12.866029-22.292726 41.389666-29.939893 64.046688-16.83134 22.49534 12.987802 30.141484 41.915645 17.438161 63.883983L321.763284 935.64365 321.763284 935.64365zM135.410016 783.761474c-22.292726 12.866029-50.816363 5.218862-63.883983-17.438161-12.986779-22.49534-5.13802-51.382251 16.83134-64.046688l163.777087-94.552469c22.292726-12.866029 50.816363-5.218862 63.883983 17.438161 12.986779 22.49534 5.13802 51.382251-16.83134 64.046688L135.410016 783.761474 135.410016 783.761474zM50.000787 559.053666c-25.732058 0-46.608527-20.87647-46.608527-47.053666 0-25.974581 21.200858-47.053666 46.608527-47.053666l189.103916 0c25.732058 0 46.608527 20.87647 46.608527 47.053666 0 25.974581-21.200858 47.053666-46.608527 47.053666L50.000787 559.053666 50.000787 559.053666zM88.35635 321.763284c-22.292726-12.866029-29.939893-41.389666-16.83134-64.046688 12.986779-22.49534 41.915645-30.141484 63.883983-17.438161l163.777087 94.552469c22.292726 12.866029 29.939893 41.389666 16.83134 64.046688-12.986779 22.49534-41.915645 30.141484-63.883983 17.438161L88.35635 321.763284 88.35635 321.763284zM240.238526 135.410016c-12.866029-22.292726-5.218862-50.816363 17.438161-63.883983 22.49534-12.986779 51.382251-5.13802 64.046688 16.83134l94.552469 163.777087c12.866029 22.292726 5.218862 50.816363-17.438161 63.883983-22.49534 12.986779-51.382251 5.13802-64.046688-16.83134L240.238526 135.410016 240.238526 135.410016z" p-id="2978"></path></svg>