<?xml version="1.0" encoding="utf-8"?>
<!-- Generator: Adobe Illustrator 18.0.0, SVG Export Plug-In . SVG Version: 6.00 Build 0)  -->
<!DOCTYPE svg PUBLIC "-//W3C//DTD SVG 1.1//EN" "http://www.w3.org/Graphics/SVG/1.1/DTD/svg11.dtd">
<svg version="1.1" xmlns="http://www.w3.org/2000/svg" xmlns:xlink="http://www.w3.org/1999/xlink" x="0px" y="0px"
	 viewBox="0 0 115.1 122" enable-background="new 0 0 115.1 122" xml:space="preserve">
<g>
	<g>
		<path fill-rule="evenodd" clip-rule="evenodd" fill="#898989" d="M56.1,48c0-3.9-1.6-7.4-4.1-9.9l0-0.1L35.8,21.8L16,41.6
			l15.7,15.7c0.4,0.4,0.8,0.8,1.2,1.2l23.3,23.3V48.4l0-0.1C56.1,48.2,56.1,48.1,56.1,48z M58.9,48c0,0.1,0,0.2,0,0.4l0,0.1v33.4
			l40.2-40.2L79.3,21.8L63.4,37.7C60.6,40.2,58.9,43.9,58.9,48z M57.5,0L37.7,19.8l19.8,19.8l19.8-19.8L57.5,0z M115.1,63.3
			c0-4.1-1.8-7.8-4.6-10.3l-9.4-9.4L63.6,81c-2.9,2.6-4.7,6.3-4.7,10.5c0,0.1,0,0.1,0,0.2l0,0V122c2.4-0.3,4.6-1.4,6.2-3l0,0l46-46
			l0,0C113.6,70.5,115.1,67.1,115.1,63.3z M56.1,91.5c0-3.9-1.6-7.4-4.1-9.9l0-0.1l-38-38L4.6,53C1.8,55.5,0,59.2,0,63.3
			c0,3.8,1.5,7.2,4,9.8l0,0L31.8,101c0.3,0.3,0.5,0.5,0.8,0.8l17.3,17.3L50,119c1.6,1.6,3.7,2.6,6.1,3V91.7l0,0
			C56.1,91.6,56.1,91.6,56.1,91.5z"/>
	</g>
</g>
</svg>
