<?xml version="1.0" standalone="no"?><!DOCTYPE svg PUBLIC "-//W3C//DTD SVG 1.1//EN" "http://www.w3.org/Graphics/SVG/1.1/DTD/svg11.dtd"><svg t="1481613136732" class="icon" style="" viewBox="0 0 1024 1024" version="1.1" xmlns="http://www.w3.org/2000/svg" p-id="2451" xmlns:xlink="http://www.w3.org/1999/xlink" width="200" height="200"><defs><style type="text/css"></style></defs><path d="M300.2368 1024 94.208 1024c-35.6352 0-64.7168-29.0816-64.7168-64.7168L29.4912 64.7168C29.4912 29.0816 58.5728 0 94.208 0l206.2336 0c35.6352 0 64.7168 29.0816 64.7168 64.7168l0 894.7712C364.9536 994.9184 335.872 1024 300.2368 1024z" p-id="2452"></path><path d="M929.792 1024 723.7632 1024c-35.6352 0-64.7168-29.0816-64.7168-64.7168L659.0464 64.7168C659.0464 29.0816 688.128 0 723.7632 0L929.792 0c35.6352 0 64.7168 29.0816 64.7168 64.7168l0 894.7712C994.5088 994.9184 965.4272 1024 929.792 1024z" p-id="2453"></path></svg>