<?xml version="1.0" standalone="no"?><!DOCTYPE svg PUBLIC "-//W3C//DTD SVG 1.1//EN" "http://www.w3.org/Graphics/SVG/1.1/DTD/svg11.dtd"><svg t="1480940949539" class="icon" style="" viewBox="0 0 1024 1024" version="1.1" xmlns="http://www.w3.org/2000/svg" p-id="2433" xmlns:xlink="http://www.w3.org/1999/xlink" width="200" height="200"><defs><style type="text/css"></style></defs><path d="M548.58752 410.92096a174.4896 174.4896 0 0 1-5.45792 18.69824c-1.01376 3.072-2.16064 6.00064-3.31776 8.94976 3.71712-9.33888-1.19808 2.43712-2.304 4.74112-2.816 5.76512-5.95968 11.264-9.28768 16.64-1.65888 2.69312-3.46112 5.24288-5.24288 7.92576-0.89088 1.29024-1.80224 2.56-2.7648 3.70688-4.608 6.4 2.88768-3.45088-0.256 0.53248a188.928 188.928 0 0 1-27.648 27.904c-1.52576 1.14688-6.1952 4.75136 0.89088-0.63488-1.28 0.89088-2.49856 1.91488-3.84 2.816-2.48832 1.78176-5.10976 3.584-7.80288 5.36576a236.7488 236.7488 0 0 1-17.85856 10.24c-2.88768 1.42336-5.76512 2.69312-8.64256 3.98336-5.43744 2.41664 6.58432-2.69312 1.024-0.38912a59.136 59.136 0 0 1-4.54656 1.65888 183.1936 183.1936 0 0 1-20.02944 6.15424c-3.15392 0.75776-6.3488 1.51552-9.60512 2.048-2.31424 0.512-13.96736 2.17088-3.65568 0.768-7.168 1.01376-14.46912 1.40288-21.69856 1.51552-6.78912 0-13.44512-0.37888-20.1728-1.024-1.65888-0.12288-3.328-0.24576-4.92544-0.50176 9.22624 1.13664 3.072 0.37888 1.08544 0.12288-3.70688-0.63488-7.48544-1.42336-11.25376-2.18112a198.56384 198.56384 0 0 1-18.69824-5.24288 320.8192 320.8192 0 0 1-9.02144-3.328c-5.56032-2.18112 6.53312 2.79552 1.024 0.38912-1.92512-0.78848-3.84-1.67936-5.76512-2.56-5.75488-2.816-11.264-5.89824-16.70144-9.22624-2.7648-1.52576-5.38624-3.328-8.00768-5.10976-2.05824-1.42336-12.16512-9.09312-4.29056-2.94912a190.70976 190.70976 0 0 1-28.17024-27.41248c-1.024-1.26976-1.98656-2.41664-2.92864-3.70688 5.49888 6.912 1.85344 2.43712 0.68608 0.89088-1.91488-2.54976-3.6352-5.24288-5.36576-7.80288a175.24736 175.24736 0 0 1-10.4448-17.78688c-1.47456-2.816-2.816-5.76512-4.16768-8.58112-0.768-1.78176-3.00032-7.29088 0.45056 1.024-0.58368-1.52576-1.21856-2.94912-1.73056-4.47488a200.40704 200.40704 0 0 1-6.3488-19.97824 185.18016 185.18016 0 0 1-3.76832-19.33312c1.52576 10.24-0.12288-1.40288-0.256-3.84a191.10912 191.10912 0 0 1 0.63488-36.87424c0.63488-6.144-1.09568 7.29088-0.2048 1.14688 0.58368-3.84 1.34144-7.54688 2.10944-11.264 1.34144-6.4 3.072-12.67712 5.13024-18.82112 0.96256-3.072 2.05824-6.02112 3.20512-9.09312 0.70656-1.78176 3.00032-7.29088-0.45056 1.024 0.83968-1.91488 1.67936-3.96288 2.63168-5.75488a181.93408 181.93408 0 0 1 20.40832-33.81248c-5.94944 7.82336 0.96256-1.01376 2.43712-2.79552 2.05824-2.31424 4.16768-4.61824 6.32832-6.93248 4.74112-4.98688 9.728-9.58464 14.85824-14.08a154.624 154.624 0 0 1 3.65568-2.94912c4.608-3.70688-5.5808 4.23936-0.83968 0.65536a183.5008 183.5008 0 0 1 25.41568-16.00512c2.74432-1.54624 5.69344-2.94912 8.58112-4.23936 1.40288-0.768 2.87744-1.28 4.352-1.91488-8.26368 3.584-2.75456 1.14688-0.96256 0.37888a213.57568 213.57568 0 0 1 19.9168-6.4 185.67168 185.67168 0 0 1 19.21024-3.96288c6.07232-0.91136-7.36256 0.89088-1.16736 0.12288a63.7952 63.7952 0 0 0 5.00736-0.512c3.8912-0.256 7.75168-0.52224 11.71456-0.65536 6.7072-0.256 13.49632 0 20.224 0.53248 2.36544 0.256 14.08 1.65888 3.84 0.256 3.77856 0.512 7.54688 1.26976 11.32544 2.03776 6.3488 1.29024 12.60544 2.94912 18.75968 4.87424 3.14368 1.024 6.144 2.16064 9.1648 3.20512 1.47456 0.512 3.00032 1.14688 4.47488 1.78176-8.83712-3.584-1.47456-0.63488 0.38912 0.256a185.4464 185.4464 0 0 1 33.9968 20.24448c4.73088 3.45088-5.50912-4.36224-0.83968-0.65536 1.21856 0.91136 2.36544 1.92512 3.584 2.94912 2.816 2.31424 5.57056 4.87424 8.26368 7.29088 4.9152 4.75136 9.60512 9.728 14.01856 14.99136 1.024 1.14688 1.97632 2.43712 3.00032 3.584 3.72736 4.608-4.21888-5.50912-0.68608-0.89088 2.24256 2.94912 4.27008 6.02112 6.32832 9.09312 3.84 5.75488 7.29088 11.64288 10.4448 17.78688 1.47456 2.816 2.816 5.76512 4.08576 8.58112 0.83968 1.78176 3.08224 7.29088-0.31744-1.03424 0.77824 1.92512 1.536 3.96288 2.31424 6.02112 2.3552 6.53312 4.42368 13.312 6.07232 20.10112 6.4 25.62048 5.45792 49.8176 0.39936 71.72096z m-8.13056-194.10944c-44.4928-40.59136-105.6256-61.71648-165.74464-55.57248-31.04768 3.20512-60.70272 12.29824-87.83872 27.91424-26.50112 15.104-48.3328 36.11648-66.57024 60.30336-36.8128 48.66048-48.19968 112.92672-36.22912 172.07296 10.87488 53.79072 44.61568 101.66272 89.48736 132.5056-106.0864 37.53984-189.68576 122.94144-226.10944 229.33504-12.81024 37.26336-18.8928 77.21984-18.95424 116.5312-0.13312 15.72864 13.18912 28.91776 29.00992 28.91776 15.80032 0 28.928-13.18912 28.928-28.91776 0.06144-14.10048 0.90112-28.04736 2.56-42.00448 0.75776-6.15424-0.96256 7.29088-0.06144 1.13664 0.19456-1.64864 0.44032-3.31776 0.69632-4.85376a310.56896 310.56896 0 0 1 6.27712-30.48448 341.0944 341.0944 0 0 1 12.41088-38.53312c0.77824-2.18112 5.25312-12.66688 1.34144-3.45088 1.21856-2.94912 2.49856-5.888 3.84-8.83712 2.88768-6.27712 6.02112-12.43136 9.34912-18.45248a342.00576 342.00576 0 0 1 20.80768-33.792l5.56032-7.68c0.96256-1.29024 1.97632-2.56 2.88768-3.84-5.38624 7.168-1.80224 2.41664-0.58368 0.89088 4.21888-5.376 8.71424-10.48576 13.24032-15.616a356.56704 356.56704 0 0 1 28.12928-27.648c4.72064-4.23936 9.58464-8.20224 14.58176-12.16512-7.75168 6.15424 1.08544-0.75776 3.00032-2.18112a333.33248 333.33248 0 0 1 60.3136-35.072c1.47456-0.77824 2.94912-1.42336 4.34176-2.05824 5.51936-2.31424-6.53312 2.816-0.96256 0.512 3.39968-1.51552 6.98368-2.816 10.4448-4.21888a342.15936 342.15936 0 0 1 38.72768-11.776c6.3488-1.52576 12.8-2.80576 19.21024-3.97312 3.25632-0.64512 6.53312-1.14688 9.78944-1.64864a165.4784 165.4784 0 0 0-1.0752 0.12288 333.98784 333.98784 0 0 1 48.5888-2.69312c6.78912 0 13.568 0.37888 20.29568 0.89088 3.328 0.256 6.656 0.512 9.99424 0.89088 1.59744 0.13312 3.25632 0.256 4.92544 0.53248 8.192 0.89088-4.67968-0.77824 0.512 0a339.28192 339.28192 0 0 1 78.41792 21.248c1.73056 0.63488 7.23968 3.072-1.08544-0.512a190.62784 190.62784 0 0 1 13.12768 6.02112c6.27712 2.93888 12.43136 6.15424 18.432 9.472a352.70656 352.70656 0 0 1 33.42336 21.38112c2.56 1.80224 5.0688 3.70688 7.61856 5.64224-7.8848-6.02112 1.03424 0.89088 2.7648 2.42688 5.31456 4.352 10.42432 8.82688 15.55456 13.44512a355.45088 355.45088 0 0 1 27.26912 28.53888c2.05824 2.31424 3.97312 4.87424 6.02112 7.31136 1.024 1.13664 2.05824 2.41664 2.94912 3.70688-5.50912-7.05536-1.80224-2.43712-0.64512-0.91136 4.08576 5.50912 8.05888 11.15136 11.76576 16.77312a292.12672 292.12672 0 0 1 19.968 34.44736c2.94912 5.64224 5.64224 11.38688 8.21248 17.28512 2.42688 5.50912-2.816-6.53312-0.38912-1.024 0.64512 1.52576 1.14688 3.08224 1.792 4.48512 1.42336 3.584 2.69312 7.04512 3.96288 10.61888 4.61824 12.67712 8.21248 25.74336 11.28448 38.93248 1.26976 5.888 2.43712 11.776 3.46112 17.68448 0.37888 2.816 0.89088 5.48864 1.26976 8.18176 0.91136 6.15424-0.89088-7.29088-0.13312-1.13664 0.256 1.64864 0.37888 3.328 0.512 4.97664 1.42336 12.29824 2.05824 24.58624 2.05824 37.0176 0 15.72864 13.17888 28.91776 28.93824 28.91776 15.88224 0 29.06112-13.18912 28.93824-28.91776 0-58.90048-14.34624-116.77696-41.23648-169.15456-25.98912-50.688-64.52224-93.5936-110.10048-127.39584a347.51488 347.51488 0 0 0-93.92128-49.29536c20.35712-14.06976 38.3488-31.61088 53.56544-51.83488 65.18784-86.45632 50.59584-212.95104-28.91776-285.41952z m75.42784-37.25312c-15.88224-0.13312-29.02016-13.18912-29.02016-29.06112 0-15.74912 13.13792-29.06112 29.02016-28.93824a218.33728 218.33728 0 0 1 145.70496 56.58624c39.43424 36.10624 63.49824 85.9136 68.88448 138.91584 6.15424 60.0576-15.11424 121.25184-55.57248 165.81632a207.5648 207.5648 0 0 1-37.77536 32.52224c33.4336 11.64288 65.1776 28.16 93.61408 49.29536 45.57824 33.792 84.23424 76.67712 110.10048 127.37536a373.99552 373.99552 0 0 1 41.49248 169.15456c0 15.74912-13.312 29.06112-29.07136 29.06112-15.74912 0-28.93824-13.312-29.06112-29.06112 0-8.97024-0.256-18.0736-1.024-27.02336-0.256-4.36224-0.768-8.83712-1.28-13.312-1.03424-8.07936 0.768 4.73088 0-0.53248l-0.77824-4.85376a321.40288 321.40288 0 0 0-11.264-47.7696 283.57632 283.57632 0 0 0-8.71424-24.18688c-0.64512-1.92512-3.84-9.22624 0-0.512a147.00544 147.00544 0 0 1-2.57024-5.89824 349.20448 349.20448 0 0 0-4.85376-10.10688 323.81952 323.81952 0 0 0-24.07424-41.09312c-2.048-3.072-4.10624-6.15424-6.4-9.10336-1.29024-1.80224-8.20224-10.752-2.05824-2.93888a356.83328 356.83328 0 0 0-39.80288-42.77248 390.18496 390.18496 0 0 0-15.75936-13.17888c-1.51552-1.28-6.144-4.88448 1.024 0.63488-1.26976-1.024-2.53952-1.91488-3.84-2.93888-2.53952-1.91488-5.10976-3.70688-7.66976-5.49888a296.77568 296.77568 0 0 0-33.80224-20.87936c-6.02112-3.328-12.288-6.4-18.44224-9.34912-3.08224-1.26976-5.89824-2.67264-8.83712-3.84 9.216 3.84-1.28-0.512-3.46112-1.40288a333.0048 333.0048 0 0 0-38.4-12.42112 553.1136 553.1136 0 0 0-20.74624-4.59776c-3.328-0.53248-6.656-1.16736-9.728-1.67936-1.792-0.24576-3.328-0.512-5.12-0.75776-6.02112-0.75776 7.43424 1.024 1.28 0.24576a349.09184 349.09184 0 0 0-39.94624-2.69312H613.0688v-0.11264h-0.78848l-1.51552-0.24576-0.64512-0.13312-0.64512-0.13312-1.536-0.37888-0.64512-0.24576-0.64512-0.256-1.29024-0.37888v-0.14336l-0.75776-0.256-2.43712-1.13664-1.91488-1.14688-0.512-0.256v-0.12288l-0.53248-0.39936-0.512-0.37888-1.13664-0.90112h-0.13312l-0.512-0.37888-0.512-0.512-0.52224-0.37888v-0.13312l-0.512-0.37888-0.38912-0.53248-0.512-0.512-0.37888-0.50176-0.512-0.512-0.512-0.64512-0.39936-0.512-0.37888-0.64512-0.37888-0.512-0.37888-0.512-0.512-0.64512-0.256-0.64512-0.24576-0.64512-0.37888-0.64512-0.37888-0.512-0.59392-1.26976-0.24576-0.77824-0.2048-0.64512h-0.06144l-0.2048-0.64512-0.24576-0.63488-0.256-0.768-0.12288-0.64512-0.2048-0.64512-0.13312-0.75776-0.13312-0.64512h-0.0512l-0.13312-0.75776-0.07168-0.77824-0.06144-0.64512-0.07168-0.768-0.0512-0.75776-0.08192-0.64512v-1.536l0.08192-0.768 0.0512-0.63488 0.07168-0.77824 0.06144-0.63488 0.07168-0.768 0.13312-0.768 0.18432-0.63488 0.13312-0.78848 0.2048-0.63488 0.12288-0.63488 0.256-0.768 0.24576-0.65536 0.2048-0.63488 0.256-0.64512 0.24576-0.768 0.32768-0.63488 0.256-0.65536 0.37888-0.512 0.37888-0.63488 0.24576-0.63488 0.256-0.64512 0.512-0.512 0.37888-0.65536 0.37888-0.50176 0.37888-0.64512 0.39936-0.512 0.512-0.50176 0.512-0.512 0.37888-0.65536 0.512-0.512 0.38912-0.512 0.512-0.37888 1.03424-1.024 0.512-0.38912 0.64512-0.52224 0.63488-0.37888 1.04448-0.768a28.30336 28.30336 0 0 1 13.32224-4.864l0.63488-0.12288h0.64512l1.54624-0.14336v0.14336h0.99328l0.256-0.14336h1.24928a181.248 181.248 0 0 0 14.34624-0.63488c2.17088-0.256 12.16512-1.65888 2.03776-0.13312 2.31424-0.37888 4.37248-0.63488 6.656-1.14688 9.99424-1.80224 19.968-4.352 29.696-7.80288 2.57024-0.91136 5.00736-1.92512 7.44448-2.94912-9.09312 3.84-0.12288 0 1.91488-0.91136a221.0816 221.0816 0 0 0 12.67712-6.53312c4.59776-2.67264 9.10336-5.36576 13.32224-8.43776 2.31424-1.42336 4.34176-2.94912 6.53312-4.61824 3.96288-2.94912-5.76512 4.74112 0.37888-0.256a194.08896 194.08896 0 0 0 21.52448-20.736c1.78176-1.92512 3.45088-3.96288 5.10976-5.89824 1.29024-1.52576 4.75136-6.27712-0.64512 0.89088 0.64512-0.89088 1.26976-1.65888 1.92512-2.54976 2.816-3.84 5.36576-7.69024 7.92576-11.78624 2.816-4.47488 5.376-9.09312 7.92576-13.824 1.04448-2.31424 2.31424-4.75136 3.328-7.168 0.91136-1.92512 3.86048-9.216 0.26624-0.37888 3.84-9.48224 7.04512-19.21024 9.20576-29.19424 0.77824-3.70688 1.536-7.56736 2.18112-11.28448 0.37888-2.03776 1.024-8.05888-0.13312 1.16736 0.256-1.66912 0.37888-3.328 0.512-4.99712 0.768-6.656 1.024-13.312 1.024-20.10112-0.24576-7.29088-0.512-14.45888-1.52576-21.64736 1.28 10.25024-0.24576-1.40288-0.75776-3.84-0.512-3.072-1.29024-6.4-2.05824-9.472a154.24512 154.24512 0 0 0-6.15424-20.10112 45.312 45.312 0 0 0-1.64864-4.47488c-2.18112-5.64224 2.94912 6.4 0.37888 1.01376-1.29024-2.94912-2.56-5.888-3.96288-8.69376a209.58208 209.58208 0 0 0-10.37312-17.93024 74.07616 74.07616 0 0 0-5.26336-7.68c-0.89088-1.29024-1.92512-2.56-2.816-3.84 5.38624 7.04512 1.92512 2.41664 0.64512 0.89088a188.50816 188.50816 0 0 0-27.91424-27.648c-3.96288-3.20512 5.89824 4.352-0.37888-0.39936-1.29024-0.89088-2.56-1.78176-3.98336-2.67264-2.54976-1.80224-5.10976-3.584-7.80288-5.25312a191.30368 191.30368 0 0 0-16.65024-9.216c-2.31424-1.14688-13.94688-6.01088-4.73088-2.29376a165.66272 165.66272 0 0 0-8.97024-3.33824c-6.144-2.17088-12.288-4.096-18.688-5.50912a102.88128 102.88128 0 0 0-11.264-2.18112c-1.54624-0.256-3.20512-0.64512-4.88448-0.89088 9.34912 1.41312 3.20512 0.512 1.29024 0.256a239.14496 239.14496 0 0 0-20.13184-0.95232z" p-id="2434"></path></svg>