<?xml version="1.0" standalone="no"?><!DOCTYPE svg PUBLIC "-//W3C//DTD SVG 1.1//EN" "http://www.w3.org/Graphics/SVG/1.1/DTD/svg11.dtd"><svg t="1481005843007" class="icon" style="" viewBox="0 0 1025 1024" version="1.1" xmlns="http://www.w3.org/2000/svg" p-id="1058" xmlns:xlink="http://www.w3.org/1999/xlink" width="200.1953125" height="200"><defs><style type="text/css"></style></defs><path d="M1024.34496 623.168c0-198.976-128.96-342.272-319.616-342.272L108.24896 280.896l149.12-149.184c16.064-15.744 37.184-48 21.312-63.872-15.936-15.936-43.072 0-59.136 15.744L14.68096 284.224c-8.128 7.936-12.16 18.368-12.16 28.8 0 10.304 3.968 20.608 11.84 28.48C14.36096 341.568 14.36096 341.568 14.42496 341.568c0.064 0.064 0.064 0.064 0.128 0.128l203.136 201.728c15.936 15.808 44.992 30.272 60.992 14.464C294.74496 542.08 273.30496 509.824 257.36896 494.016l-149.12-149.12 596.544 0c144.064 0 258.88 103.936 255.68 276.928-9.28 275.52-266.432 279.488-266.432 279.488l-649.664-2.56c-22.656 0-37.312 4.608-42.624 21.312-1.6 4.992-1.92 16.576 0 21.312 6.336 15.552 23.68 21.312 40.896 21.312l647.296 0C1020.56896 962.688 1024.34496 623.168 1024.34496 623.168L1024.34496 623.168z" p-id="1059"></path></svg>