<?xml version="1.0" standalone="no"?><!DOCTYPE svg PUBLIC "-//W3C//DTD SVG 1.1//EN" "http://www.w3.org/Graphics/SVG/1.1/DTD/svg11.dtd"><svg t="1481008190066" class="icon" style="" viewBox="0 0 1024 1024" version="1.1" xmlns="http://www.w3.org/2000/svg" p-id="5508" xmlns:xlink="http://www.w3.org/1999/xlink" width="200" height="200"><defs><style type="text/css"></style></defs><path d="M945.549765 931.726433 174.037267 931.726433l187.17703-55.940057c2.304486-0.714268 4.158716-1.880837 5.9055-3.680832l476.221122-481.979266c0.581238-0.62217 1.059122-1.550309 1.509377-2.251274l101.945857-102.462626c8.235568-8.184403 12.712533-19.227923 12.712533-30.855752 0-11.706623-4.476965-22.578228-12.791327-30.855752L800.830733 77.006861c-16.951067-16.937764-44.496423-16.937764-61.448514 0L635.239324 181.720761c-0.713244 0.701988-0.979304 1.588171-1.509377 2.343371L156.609339 663.765519c-1.537006 1.349741-2.753717 3.520173-3.310396 5.480828L65.233212 941.339372c-0.212848 0.370437 0 0.794086-0.105401 1.2689-0.187265 1.00898-0.636496 2.174526-0.636496 3.046383 0 0.715291 0.212848 1.457188 0.449231 2.095731l0.292666 1.879813c0.794086 1.957585 1.588171 3.838422 2.914376 5.402033 0.317225 0.160659 0.317225 0.370437 0.317225 0.370437s0.080841 0 0.080841 0.080841c1.348718 1.322112 2.832512 2.224668 4.474918 3.122107 1.879813 0.718361 3.469008 1.089821 5.429663 1.089821l867.100554 0c7.68196 0 13.95892-6.303566 13.95892-14.041808C959.508685 937.922553 953.231725 931.726433 945.549765 931.726433L945.549765 931.726433 945.549765 931.726433zM813.782719 380.220674 360.923678 838.439794l-16.104793-56.124252 437.31195-433.839873L813.782719 380.220674 813.782719 380.220674 813.782719 380.220674zM259.508917 764.121158l0-65.312518L694.489776 260.410961l68.041676 68.200288L323.630307 764.040317l-64.122413 0L259.507894 764.121158 259.508917 764.121158zM242.159784 676.610058l-48.178279-10.884908 451.825502-454.234365 28.975938 29.014824L242.159784 676.610058 242.159784 676.610058 242.159784 676.610058 242.159784 676.610058zM336.398098 853.909114 99.771843 924.707576l75.987648-234.428194 55.806004 12.764722 0 75.299987c0 7.733125 6.305613 13.931291 13.985526 13.931291l73.127508 0L336.398098 853.909114 336.398098 853.909114 336.398098 853.909114zM927.115927 265.521353l-94.054119 94.463442L665.142377 191.334723l93.945649-94.462418c6.199189-6.107091 16.051581-6.02625 22.037922 0L927.115927 243.524362c2.914376 3.046383 4.474918 6.900154 4.474918 11.125385C931.591869 258.70204 930.030303 262.675538 927.115927 265.521353L927.115927 265.521353 927.115927 265.521353z" p-id="5509"></path></svg>